<?xml version="1.0" encoding="UTF-8" standalone="no"?><!DOCTYPE svg PUBLIC "-//W3C//DTD SVG 1.1//EN" "http://www.w3.org/Graphics/SVG/1.1/DTD/svg11.dtd"><svg width="100%" height="100%" viewBox="0 0 391 344" version="1.1" xmlns="http://www.w3.org/2000/svg" xmlns:xlink="http://www.w3.org/1999/xlink" xml:space="preserve" xmlns:serif="http://www.serif.com/" style="fill-rule:evenodd;clip-rule:evenodd;stroke-linecap:round;stroke-linejoin:round;stroke-miterlimit:1.5;"><path d="M112.324,20.697l-108.166,92.049l-0.551,85.161l24.529,19.843l-11.851,9.922l60.908,74.413l31.97,6.063l25.907,-18.465l-21.773,51.262l36.655,-0l44.648,-77.72l83.232,-0.827l28.111,-40.238l82.681,-38.584l-0.275,-70.83l-73.035,-76.342l-106.383,-33.348l-96.607,17.641" style="stroke:#000;stroke-width:1.77px;"/><path d="M78.413,303.767l-4.284,-1.805l46.858,-110.891l21.755,-7.238l6.954,-11.054l3.933,2.479l-7.846,12.463l-21.337,7.096l-46.033,108.95Z" style="fill:#fff;"/><rect x="2.325" y="196.2" width="46.371" height="4.654" style="fill:#fff;"/><path d="M197.483,105.083l-3.975,-2.416l12.071,-19.855l0,-80.42l4.654,-0l0,81.72l-12.75,20.971Z" style="fill:#fff;"/><path d="M211.917,114.2l-3.942,-2.471l21.546,-34.258l0.558,-0.296l83.55,-43.475l2.15,4.125l-82.996,43.183l-20.866,33.192Z" style="fill:#fff;"/><path d="M176.775,150.467l13.737,8.641l8.642,-13.746l-13.742,-8.641l-8.637,13.746Zm15.2,15.05l-21.613,-13.592l13.592,-21.617l21.613,13.596l-13.592,21.613Z" style="fill:#fff;"/><path d="M189.371,118.421l-3.975,-2.413l4.916,-8.087l3.975,2.412l-4.916,8.088Z" style="fill:#fff;"/><path d="M203.608,127.412l-3.941,-2.466l4.9,-7.804l3.941,2.471l-4.9,7.799Z" style="fill:#fff;fill-rule:nonzero;"/><path d="M217.858,136.371l-3.941,-2.471l4.9,-7.796l3.941,2.471l-4.9,7.796Z" style="fill:#fff;fill-rule:nonzero;"/><path d="M185.537,187.887l-3.975,-2.416l4.913,-8.084l3.975,2.413l-4.913,8.087Z" style="fill:#fff;fill-rule:nonzero;"/><path d="M171.283,178.662l-3.941,-2.466l4.9,-7.8l3.941,2.471l-4.9,7.795Z" style="fill:#fff;"/><path d="M157.025,169.708l-3.933,-2.483l4.908,-7.796l3.929,2.483l-4.904,7.796Z" style="fill:#fff;fill-rule:nonzero;"/><path d="M225.492,154.271l-8.084,-4.921l2.413,-3.975l8.083,4.917l-2.412,3.979Z" style="fill:#fff;"/><path d="M216.208,168.483l-7.796,-4.908l2.48,-3.929l7.8,4.908l-2.484,3.929Z" style="fill:#fff;"/><path d="M207.246,182.733l-7.796,-4.908l2.479,-3.929l7.796,4.908l-2.479,3.929Z" style="fill:#fff;"/><path d="M156.029,150.429l-8.083,-4.916l2.412,-3.976l8.084,4.917l-2.413,3.975Z" style="fill:#fff;"/><path d="M164.958,136.158l-7.796,-4.904l2.48,-3.933l7.8,4.908l-2.484,3.929Z" style="fill:#fff;fill-rule:nonzero;"/><path d="M173.921,121.908l-7.796,-4.904l2.479,-3.929l7.8,4.904l-2.483,3.929Z" style="fill:#fff;"/><path d="M155.767,155.25l39.533,24.862l24.867,-39.533l-39.542,-24.867l-24.858,39.538Zm40.991,31.275l-47.404,-29.813l29.813,-47.412l47.412,29.817l-29.821,47.408Z" style="fill:#fff;"/><path d="M226.167,123.162l-3.942,-2.47l7.025,-11.175l159.008,-0l0,4.654l-156.441,-0l-5.65,8.991Z" style="fill:#fff;fill-rule:nonzero;"/><path d="M151.871,128.046l-18.934,-11.784l-130.612,0l-0,-4.654l131.946,0l20.058,12.484l-2.458,3.954Z" style="fill:#fff;"/><path d="M388.258,185.892l-112.654,-0l-44.733,-28.129l2.471,-3.942l43.608,27.416l111.308,0l0,4.655Z" style="fill:#fff;"/><path d="M278.8,265.088l-85.117,-0l0,-4.655l82.667,0l27.679,-40.4l0.592,-0.271l81.308,-36.754l0,-70.22l-72.483,-74.988l-105.692,-33.017l-95.046,17.179l-108.054,93.042l0,82.363l24.354,18.316l-2.791,3.713l-26.217,-19.709l0,-86.82l110.642,-95.259l0.616,-0.112l96.796,-17.496l0.546,0.175l107.775,33.971l74.208,76.754l0,75.108l-83.454,37.725l-28.329,41.355Z" style="fill:#fff;"/><path d="M160.862,113.729l-20.175,-12.687l-31.179,-80.421l4.334,-1.675l30.629,78.983l18.862,11.858l-2.471,3.942Z" style="fill:#fff;"/><path d="M110.438,310.804l-35.413,-5.783l-62.408,-76.8l98.62,-91.067l32.371,0l1.804,1.142l-2.483,3.929l-0.666,-0.417l-29.209,0l-94.071,86.871l58.534,72.033l31.633,5.175l25.104,-20.12l2.909,3.629l-26.725,21.408Z" style="fill:#fff;"/><path d="M150.863,343.338l-41.788,-0l46.513,-107.613l-0,-40.704l8.354,-13.275l3.941,2.466l-7.641,12.155l-0.196,40.762l-43.892,101.554l32,0l42.917,-76.025l-16.25,-35.379l-0,-31.212l3.371,-5.367l3.937,2.471l-2.654,4.229l0,29.358l16.825,36.109l-0.592,1.037l-44.845,79.434Z" style="fill:#fff;"/><path d="M303.647,221.479l-1.345,4.654l-0.563,-0.358l-79.826,-53.763l2.47,-3.941l79.264,53.408Z" style="fill:#fff;"/><path d="M275.742,264.192l-59.138,-75.634l-3.658,-2.304l2.479,-3.929l4.592,3.05l59.391,75.954l-3.666,2.863Z" style="fill:#fff;"/></svg>