<?xml version="1.0" encoding="UTF-8" standalone="no"?>
<!DOCTYPE svg PUBLIC "-//W3C//DTD SVG 1.1//EN" "http://www.w3.org/Graphics/SVG/1.1/DTD/svg11.dtd">
<svg width="100%" height="100%" viewBox="0 0 560 492" version="1.1" xmlns="http://www.w3.org/2000/svg" xmlns:xlink="http://www.w3.org/1999/xlink" xml:space="preserve" xmlns:serif="http://www.serif.com/" style="fill-rule:evenodd;clip-rule:evenodd;stroke-linejoin:round;stroke-miterlimit:2;">
    <g transform="matrix(1.33333,0,0,1.33333,0,-0.669332)">
        <g transform="matrix(4.16667,0,0,4.16667,0,-1.58966)">
            <g>
                <path d="M20.21,78.801L19.105,78.334L31.184,49.751L36.791,47.886L38.583,45.037L39.598,45.675L37.578,48.889L32.078,50.717L20.21,78.801Z"/>
                <rect x="0.598" y="51.075" width="11.953" height="1.199"/>
                <path d="M50.901,27.588L49.876,26.964L52.99,21.847L52.99,1.117L54.187,1.117L54.187,22.183L50.901,27.588Z"/>
                <path d="M54.62,29.938L53.606,29.3L59.159,20.471L80.84,9.187L81.393,10.25L60.002,21.382L54.62,29.938Z"/>
                <path d="M45.565,39.285L49.106,41.512L51.332,37.97L47.79,35.743L45.565,39.285ZM49.482,43.165L43.912,39.661L47.414,34.091L52.984,37.594L49.482,43.165Z"/>
                <path d="M48.813,31.025L47.787,30.404L49.052,28.319L50.078,28.941L48.813,31.025Z"/>
                <path d="M52.48,33.344L51.466,32.706L52.728,30.696L53.742,31.334L52.48,33.344Z" style="fill-rule:nonzero;"/>
                <path d="M56.153,35.654L55.139,35.015L56.401,33.005L57.415,33.643L56.153,35.654Z" style="fill-rule:nonzero;"/>
                <path d="M47.824,48.931L46.798,48.309L48.063,46.225L49.089,46.846L47.824,48.931Z" style="fill-rule:nonzero;"/>
                <path d="M44.148,46.554L43.134,45.916L44.396,43.906L45.411,44.544L44.148,46.554Z"/>
                <path d="M40.475,44.245L39.461,43.606L40.723,41.596L41.738,42.234L40.475,44.245Z" style="fill-rule:nonzero;"/>
                <path d="M58.122,40.264L56.039,38.998L56.66,37.975L58.743,39.241L58.122,40.264Z"/>
                <path d="M55.728,43.93L53.72,42.666L54.358,41.652L56.367,42.915L55.728,43.93Z"/>
                <path d="M53.42,47.603L51.409,46.339L52.047,45.325L54.059,46.588L53.42,47.603Z"/>
                <path d="M40.216,39.275L38.133,38.009L38.754,36.986L40.837,38.252L40.216,39.275Z"/>
                <path d="M42.518,35.598L40.51,34.334L41.148,33.32L43.157,34.584L42.518,35.598Z" style="fill-rule:nonzero;"/>
                <path d="M44.829,31.925L42.818,30.662L43.456,29.647L45.468,30.911L44.829,31.925Z"/>
                <path d="M40.148,40.519L50.34,46.927L56.748,36.737L46.556,30.327L40.148,40.519ZM50.716,48.58L38.495,40.895L46.18,28.674L58.401,36.36L50.716,48.58Z" style="fill-rule:nonzero;"/>
                <path d="M58.293,32.249L57.278,31.61L59.091,28.731L100.077,28.731L100.077,29.931L59.752,29.931L58.293,32.249Z" style="fill-rule:nonzero;"/>
                <path d="M39.145,33.505L34.267,30.469L0.598,30.469L0.598,29.27L34.609,29.27L39.777,32.488L39.145,33.505Z"/>
                <path d="M100.077,48.418L71.038,48.418L70.893,48.325L59.507,41.164L60.145,40.15L71.386,47.218L100.077,47.218L100.077,48.418Z"/>
                <path d="M71.862,68.831L49.924,68.831L49.924,67.631L71.229,67.631L78.367,57.217L99.478,47.674L99.478,29.573L80.792,10.244L53.551,1.733L29.052,6.161L1.196,30.144L1.196,51.375L7.474,56.097L6.755,57.054L0,51.974L0,29.594L28.516,5.038L28.679,5.01L53.626,0.502L81.547,9.302L100.675,29.089L100.675,48.446L79.165,58.171L71.862,68.831Z"/>
                <path d="M41.461,29.815L36.261,26.546L28.226,5.816L29.343,5.383L37.236,25.742L42.1,28.801L41.461,29.815Z"/>
                <path d="M28.465,80.615L19.336,79.122L19.193,78.945L3.251,59.328L28.67,35.853L37.011,35.853L37.478,36.145L36.845,37.162L36.669,37.053L29.138,37.053L4.892,59.445L19.98,78.013L28.135,79.347L34.603,74.161L35.355,75.095L28.465,80.615Z"/>
                <path d="M38.885,89L28.115,89L40.105,61.261L40.105,50.771L42.256,47.346L43.271,47.985L41.302,51.116L41.253,61.623L29.938,87.801L38.185,87.801L49.252,68.205L45.06,59.084L45.06,51.039L45.929,49.657L46.944,50.295L46.257,51.384L46.257,58.952L50.597,68.257L38.885,89Z"/>
                <path d="M57.837,43.824L57.199,44.839L57.837,43.824Z"/>
                <path d="M71.072,68.6L55.831,49.104L54.888,48.512L55.526,47.497L56.711,48.284L72.018,67.862L71.072,68.6Z"/>
                <g transform="matrix(1,0,0,1,2.04106,-4.17932)">
                    <path d="M75.251,63.206L55.831,49.104L54.888,48.512L55.526,47.497L56.711,48.284L76.197,62.468L75.251,63.206Z"/>
                </g>
            </g>
        </g>
    </g>
</svg>
