<?xml version="1.0" encoding="UTF-8" standalone="no"?><!DOCTYPE svg PUBLIC "-//W3C//DTD SVG 1.1//EN" "http://www.w3.org/Graphics/SVG/1.1/DTD/svg11.dtd"><svg width="100%" height="100%" viewBox="0 0 614 540" version="1.1" xmlns="http://www.w3.org/2000/svg" xmlns:xlink="http://www.w3.org/1999/xlink" xml:space="preserve" xmlns:serif="http://www.serif.com/" style="fill-rule:evenodd;clip-rule:evenodd;stroke-linejoin:round;stroke-miterlimit:2;"><path d="M123.213,477.322l-6.731,-2.835l73.631,-174.249l34.183,-11.373l10.928,-17.37l6.18,3.896l-12.329,19.583l-33.528,11.15l-72.334,171.198Z"/><rect x="3.653" y="308.297" width="72.864" height="7.313"/><path d="M310.314,165.122l-6.246,-3.798l18.967,-31.197l0,-126.369l7.314,0l-0,128.411l-20.035,32.953Z"/><path d="M332.994,179.447l-6.194,-3.882l33.856,-53.832l0.877,-0.465l131.286,-68.314l3.378,6.482l-130.415,67.856l-32.788,52.155Z"/><path d="M277.774,236.435l21.586,13.579l13.579,-21.6l-21.592,-13.579l-13.573,21.6Zm23.885,23.648l-33.961,-21.357l21.357,-33.967l33.961,21.364l-21.357,33.96Z"/><path d="M297.567,186.08l-6.247,-3.791l7.726,-12.708l6.246,3.79l-7.725,12.709Z"/><path d="M319.939,200.209l-6.194,-3.876l7.699,-12.263l6.194,3.882l-7.699,12.257Z" style="fill-rule:nonzero;"/><path d="M342.33,214.285l-6.194,-3.882l7.7,-12.25l6.194,3.882l-7.7,12.25Z" style="fill-rule:nonzero;"/><path d="M291.543,295.236l-6.246,-3.798l7.719,-12.701l6.246,3.79l-7.719,12.709Z" style="fill-rule:nonzero;"/><path d="M269.145,280.74l-6.194,-3.876l7.7,-12.257l6.193,3.883l-7.699,12.25Z"/><path d="M246.74,266.67l-6.18,-3.902l7.712,-12.25l6.174,3.902l-7.706,12.25Z" style="fill-rule:nonzero;"/><path d="M354.325,242.412l-12.702,-7.732l3.791,-6.246l12.702,7.726l-3.791,6.252Z"/><path d="M339.737,264.745l-12.25,-7.713l3.896,-6.174l12.257,7.713l-3.903,6.174Z"/><path d="M325.654,287.137l-12.25,-7.713l3.896,-6.174l12.25,7.713l-3.896,6.174Z"/><path d="M245.175,236.376l-12.701,-7.726l3.791,-6.246l12.701,7.726l-3.791,6.246Z"/><path d="M259.206,213.951l-12.25,-7.706l3.896,-6.18l12.256,7.712l-3.902,6.174Z" style="fill-rule:nonzero;"/><path d="M273.289,191.56l-12.25,-7.706l3.896,-6.174l12.256,7.706l-3.902,6.174Z"/><path d="M244.763,243.951l62.12,39.067l39.074,-62.12l-62.133,-39.074l-39.061,62.127Zm64.412,49.144l-74.488,-46.846l46.845,-74.501l74.502,46.852l-46.859,74.495Z"/><path d="M355.385,193.53l-6.193,-3.882l11.038,-17.56l249.857,0l-0,7.314l-245.824,-0l-8.878,14.128Z" style="fill-rule:nonzero;"/><path d="M238.641,201.204l-29.751,-18.516l-205.237,0l0,-7.313l207.333,-0l31.518,19.615l-3.863,6.214Z"/><path d="M610.087,292.099l-177.018,0l-70.292,-44.2l3.883,-6.194l68.523,43.081l174.904,0l-0,7.313Z"/><path d="M438.09,416.543l-133.747,0l-0,-7.313l129.898,0l43.493,-63.482l0.93,-0.426l127.763,-57.753l0,-110.341l-113.896,-117.831l-166.078,-51.881l-149.35,26.995l-169.79,146.2l0,129.42l38.269,28.781l-4.387,5.834l-41.195,-30.969l0,-136.425l173.856,-149.683l0.969,-0.177l152.099,-27.492l0.858,0.275l169.352,53.38l116.606,120.607l0,118.021l-131.135,59.279l-44.515,64.981Z"/><path d="M252.77,178.707l-31.702,-19.936l-48.993,-126.369l6.809,-2.632l48.129,124.11l29.64,18.634l-3.883,6.193Z"/><path d="M173.535,488.38l-55.645,-9.088l-98.065,-120.679l154.967,-143.097l50.866,0l2.835,1.794l-3.902,6.174l-1.048,-0.654l-45.896,-0l-147.818,136.503l91.976,113.189l49.707,8.132l39.447,-31.617l4.57,5.703l-41.994,33.64Z"/><path d="M237.057,539.501l-65.663,-0l73.087,-169.096l0,-63.96l13.127,-20.86l6.194,3.876l-12.008,19.098l-0.307,64.052l-68.969,159.577l50.283,-0l67.437,-119.462l-25.534,-55.592l-0,-49.046l5.296,-8.433l6.187,3.883l-4.17,6.645l-0,46.132l26.438,56.739l-0.93,1.63l-70.468,124.817Z"/><path d="M433.285,415.136l-92.926,-118.846l-5.748,-3.621l3.896,-6.174l7.215,4.793l93.324,119.35l-5.761,4.498Z"/></svg>